<svg preserveAspectRatio="xMidYMid" version="1.1" viewBox="0 0 256 256" xml:space="preserve" xmlns="http://www.w3.org/2000/svg"><g transform="matrix(.8912 0 0 .8912 13.757 8.4971e-6)"><path d="m127.5 0.002182c-4.5068 0.05775-9.006 1.4483-13.557 4.1333-13.543 7.987-81.348 46.834-101.55 58.537-8.321 4.817-12.369 12.189-12.371 21.771-0.013 39.455-1.4938e-4 78.91-0.013149 118.37 0 4.724 0.9901 8.908 2.9871 12.516 2.053 3.711 5.1673 6.814 9.3843 9.255 20.206 11.703 88.021 50.545 101.56 58.534 9.106 5.373 17.996 5.5656 27.169 0.26956 34.015-19.64 68.077-39.198 102.11-58.817 4.217-2.44 7.3335-5.5448 9.3865-9.2528 1.4863-2.6894 2.4123-5.6986 2.7899-9.0139 0.12894-1.1327 0.19505-2.301 0.19505-3.5043 0 0-1.2e-4 -78.886-0.01315-118.34-2e-3 -4.83-1.034-9.1007-3.123-12.764-2.052-3.602-5.1264-6.6203-9.2484-9.0073-34.025-19.619-68.08-39.176-102.09-58.815-4.585-2.647-9.1007-3.9237-13.607-3.8659zm0.96209 48.624c35.03 0 65.618 18.969 82.092 47.187l0.00876-0.004383 0.15999 0.27395c-0.05323-0.091874-0.11523-0.17788-0.16875-0.26956l-41.339 23.805c-8.1467-13.794-23.081-23.102-40.213-23.294l-0.53913-0.002192c-26.126 0-47.307 21.179-47.307 47.305 0 8.5436 2.2782 16.552 6.2394 23.469 8.1541 14.235 23.484 23.835 41.068 23.835 17.693 0 33.108-9.7241 41.221-24.112l-0.19724 0.34626 41.287 23.919c-16.254 28.13-46.517 47.156-81.252 47.535l-1.0585 0.00657c-35.255 0-66.025-19.204-82.418-47.724-8.003-13.923-12.582-30.064-12.582-47.276 0-52.466 42.532-95 95-95zm65.911 80.818h9.4544v9.4544h9.4544v9.4544h-9.4544v9.4544h-9.4544v-9.4544h-9.4544v-9.4544h9.4544v-9.4544zm35.455 0h9.4522v9.4544h9.4544v9.4544h-9.4544v9.4544h-9.4522v-9.4544h-9.4566v-9.4544h9.4566v-9.4544z"/></g></svg>
