<svg version="1.1" viewBox="0 0 500 463" xmlns="http://www.w3.org/2000/svg">
 <g>
  <path d="m311.23 416.25c-5.7225-2.8547-10.651-6.7734-14.326-12.076-1.1683-1.686-2.1998-3.3278-3.166-4.9512-14.022 3.4022-28.658 5.2461-43.734 5.2461-15.36 0-30.269-1.9021-44.531-5.4297-0.99486 1.6826-2.0589 3.3848-3.2715 5.1348-3.5989 5.1926-8.4021 9.0531-13.973 11.893 19.497 6.1173 40.245 9.4336 61.775 9.4336 21.327 0 41.891-3.2435 61.227-9.25z"/>
  <path d="m250 18c-113.22 0-205 91.222-205 203.75 0 30.356 6.728 59.133 18.705 85.016 18.791 9.0538 44.354 31.934 44.354 31.934s1.5187 1.5143 3.6562 3.377c-28.34-32.147-45.553-74.227-45.553-120.33 0-100.91 82.307-182.72 183.84-182.72s183.84 81.805 183.84 182.72c0 44.161-15.763 84.664-42.002 116.25 2.9898-2.6471 27.002-23.672 44.703-31.777 11.821-25.743 18.459-54.33 18.459-84.475 0-112.53-91.782-203.75-205-203.75z"/>
  <path d="m90.994 255c-8.5191 0-16.133 3.477-21.442 9.784-3.2835 3.906-6.7143 10.202-6.9932 19.63-3.5728-1.02-7.0089-1.59-10.219-1.59-8.1561 0-15.523 3.106-20.732 8.749-6.6932 7.242-9.6662 16.142-8.3718 25.047 0.6157 4.241 2.0417 8.043 4.1728 11.562-4.4937 3.613-7.8035 8.644-9.4032 14.694-1.2523 4.743-2.5362 14.621 4.1675 24.797-0.4262 0.664-0.8261 1.354-1.1997 2.06-4.0307 7.603-4.2885 16.194-0.7314 24.195 5.3935 12.126 18.796 21.68 44.821 31.935 16.191 6.379 31.004 10.458 31.135 10.494 21.405 5.517 40.764 8.32 57.523 8.32 30.804 0 52.857-9.376 65.549-27.866 20.427-29.775 17.506-57.008-8.924-83.259-14.629-14.526-24.353-35.945-26.379-40.646-4.083-13.92-14.881-29.393-32.829-29.393h-5e-3c-1.511 0-3.037 0.12-4.541 0.356-7.862 1.228-14.734 5.726-19.643 12.492-5.299-6.547-10.445-11.755-15.102-14.694-7.02-4.424-14.034-6.667-20.854-6.667zm0 20.917c2.6836 0 5.9618 1.134 9.5765 3.414 11.224 7.075 32.882 44.072 40.812 58.462 2.657 4.821 7.199 6.861 11.287 6.861 8.114 0 14.449-8.016 0.742-18.203-20.611-15.327-13.381-40.379-3.541-41.922 0.431-0.068 0.857-0.099 1.268-0.099 8.945 0 12.892 15.321 12.892 15.321s11.565 28.865 31.435 48.595c19.869 19.734 20.895 35.573 6.414 56.678-9.877 14.391-28.783 16.268-48.158 16.268-20.095 0-40.731-3.52-52.276-6.496-0.568-0.146-70.743-18.541-61.85-35.316 1.4944-2.819 3.957-3.948 7.0563-3.948 12.524 0 35.303 18.522 45.095 18.522 2.189 0 3.8202-1.683 4.4516-3.942 4.3574-15.59-63.533-20.374-57.834-41.923 1.005-3.812 3.7307-5.36 7.5615-5.355 16.549 0 53.677 28.922 61.46 28.922 0.594 0 1.02-0.172 1.252-0.538 3.899-6.254 2.103-11.346-25.38-27.875-27.483-16.535-47.114-25.755-36.143-37.625 1.2628-1.371 3.0519-1.977 5.2251-1.977 16.686 5e-3 56.108 35.657 56.108 35.657s10.64 10.997 17.076 10.997c1.478 0 2.736-0.58 3.588-2.013 4.562-7.645-42.374-42.994-45.021-57.578-1.7943-9.883 1.2576-14.887 6.9037-14.887z"/>
  <path d="m408.1 255c8.519 0 16.133 3.477 21.442 9.784 3.284 3.906 6.715 10.202 6.994 19.63 3.572-1.02 7.008-1.59 10.218-1.59 8.156 0 15.523 3.106 20.732 8.749 6.694 7.242 9.667 16.142 8.372 25.047-0.615 4.241-2.041 8.043-4.173 11.562 4.494 3.613 7.804 8.644 9.404 14.694 1.252 4.743 2.536 14.621-4.168 24.797 0.426 0.664 0.826 1.354 1.2 2.06 4.031 7.603 4.288 16.194 0.731 24.195-5.393 12.126-18.795 21.68-44.821 31.935-16.191 6.379-31.004 10.458-31.135 10.494-21.406 5.517-40.765 8.32-57.524 8.32-30.804 0-52.857-9.376-65.548-27.866-20.427-29.775-17.507-57.008 8.924-83.259 14.628-14.526 24.352-35.945 26.378-40.646 4.083-13.92 14.881-29.393 32.83-29.393h5e-3c1.51 0 3.036 0.12 4.541 0.356 7.861 1.228 14.733 5.726 19.643 12.492 5.299-6.547 10.445-11.755 15.102-14.694 7.019-4.424 14.033-6.667 20.853-6.667zm0 20.917c-2.684 0-5.962 1.134-9.577 3.414-11.224 7.075-32.882 44.072-40.812 58.462-2.657 4.821-7.198 6.861-11.287 6.861-8.114 0-14.449-8.016-0.742-18.203 20.612-15.327 13.382-40.379 3.542-41.922-0.432-0.068-0.858-0.099-1.268-0.099-8.946 0-12.892 15.321-12.892 15.321s-11.566 28.865-31.435 48.595c-19.87 19.734-20.896 35.573-6.415 56.678 9.877 14.391 28.783 16.268 48.158 16.268 20.095 0 40.731-3.52 52.276-6.496 0.568-0.146 70.744-18.541 61.851-35.316-1.495-2.819-3.957-3.948-7.057-3.948-12.523 0-35.302 18.522-45.095 18.522-2.189 0-3.82-1.683-4.451-3.942-4.358-15.59 63.533-20.374 57.834-41.923-1.005-3.812-3.731-5.36-7.561-5.355-16.549 0-53.678 28.922-61.46 28.922-0.595 0-1.021-0.172-1.253-0.538-3.899-6.254-2.103-11.346 25.38-27.875 27.484-16.535 47.115-25.755 36.143-37.625-1.262-1.371-3.052-1.977-5.225-1.977-16.685 5e-3 -56.108 35.657-56.108 35.657s-10.64 10.997-17.075 10.997c-1.479 0-2.736-0.58-3.589-2.013-4.562-7.645 42.375-42.994 45.022-57.578 1.794-9.883-1.258-14.887-6.904-14.887z"/>
 </g>
 <path d="m319.28 228.9c0-23.665-30.692 12.403-68.64 12.564-37.945-0.159-68.637-36.227-68.637-12.564 0 15.69 7.507 41.208 27.669 56.69 4.012-13.804 26.057-24.862 29.208-23.274 4.487 2.261 4.235 8.527 11.76 14.048 7.526-5.521 7.274-11.785 11.761-14.048 3.153-1.588 25.196 9.47 29.207 23.274 20.162-15.482 27.67-41 27.67-56.688l2e-3 -2e-3z"/>
 <path d="m262.4 262.32c-4.487 2.261-4.235 8.527-11.761 14.048-7.525-5.521-7.273-11.785-11.76-14.048-3.153-1.588-25.196 9.47-29.207 23.274 10.194 7.828 23.625 13.089 40.955 13.217h0.014 0.015c17.33-0.126 30.761-5.389 40.955-13.217-4.011-13.804-26.056-24.862-29.207-23.274h-4e-3z" fill-opacity="50%"/>
 <path d="m373 196c9.389 0 17-7.611 17-17s-7.611-17-17-17-17 7.611-17 17 7.611 17 17 17z"/>
 <path d="m128 196c9.389 0 17-7.611 17-17s-7.611-17-17-17-17 7.611-17 17 7.611 17 17 17z"/>
 <path d="m313.06 171.6c6.736 2.372 9.416 16.183 16.221 12.575 12.886-6.834 17.779-22.794 10.927-35.647s-22.854-17.732-35.741-10.898-17.779 22.793-10.927 35.646c3.234 6.067 13.499-3.797 19.52-1.676z"/>
 <path d="m188.55 171.6c-6.736 2.372-9.416 16.183-16.22 12.575-12.887-6.834-17.779-22.794-10.927-35.647s22.853-17.732 35.74-10.898 17.779 22.793 10.927 35.646c-3.234 6.067-13.499-3.797-19.52-1.676z"/>
</svg>
