<svg version="1.0" viewBox="0 0 350 350" xmlns="http://www.w3.org/2000/svg" xmlns:xlink="http://www.w3.org/1999/xlink">
 <g transform="matrix(1.0365 0 0 1.0365 -17.701 -6.5982)" stroke-linecap="round" stroke-linejoin="round">
  <path transform="matrix(.98709 -.1602 .1692 .98558 0 0)" d="m41.176 73.906c-8.3405 0-15.821 4.519-21.117 11.619-5.2963 7.1002-8.5 16.805-8.5 27.52v198.37c0 10.715 3.2037 20.419 8.5 27.52 5.2963 7.1002 12.777 11.621 21.117 11.621h218.46c8.3405 0 15.819-4.5209 21.115-11.621 5.2963-7.1002 8.5-16.805 8.5-27.52v-198.37c0-10.715-3.2037-20.419-8.5-27.52-5.2964-7.1002-12.775-11.619-21.115-11.619zm0 3.3047h218.46c7.1513 0 13.654 3.8396 18.467 10.291 4.8124 6.4514 7.8438 15.49 7.8438 25.543v198.37c0 10.053-3.0313 19.092-7.8438 25.543-4.8124 6.4514-11.316 10.291-18.467 10.291h-218.46c-7.1513 0-13.654-3.8396-18.467-10.291-4.8124-6.4514-7.8438-15.49-7.8438-25.543v-198.37c0-10.053 3.0313-19.092 7.8438-25.543 4.8124-6.4514 11.316-10.291 18.467-10.291z" />
  <path transform="matrix(.96474 0 0 .96474 17.077 6.3655)" d="m267.35 6.7207c-0.98652 0.026195-1.9761 0.11852-2.9668 0.2793l-223.52 36.275c-15.851 2.5724-25.679 21.725-22.037 42.941l34.789 202.65c3.6423 21.217 19.335 36.225 35.186 33.652l223.52-36.275c15.851-2.5724 25.679-21.723 22.037-42.939l-34.789-202.65c-3.4147-19.89-17.421-34.327-32.219-33.934zm20.102 53.826 0.75586 5.1113c-4.6408 0.67393-8.2757 2.0963-10.906 4.2656-2.6308 2.1694-4.906 5.8397-6.8242 11.01-1.2746 3.478-2.8948 11.567-4.8613 24.27l-27.311 158.2-5.2539 0.76172-58.299-113.87-22.605 125.62-4.7266 0.6875-75.939-147.86c-5.6565-11.031-9.1672-17.53-10.531-19.496-2.2688-3.245-5.0377-5.5004-8.3105-6.7656-3.2728-1.2649-7.4944-1.5216-12.66-0.77149l-0.75586-5.1113 65.932-9.5742 0.75586 5.1094-3.1504 0.45898c-4.6408 0.674-8.0237 2.2934-10.148 4.8594-2.1246 2.5665-2.9557 5.4158-2.4922 8.5469 0.47649 3.2232 3.4991 10.357 9.0684 21.4l50.617 100.03 16.33-93.668-7.582-14.984-6.0625-11.961c-2.5199-4.3376-5.1784-8.0907-7.9726-11.26-1.397-1.5843-3.0148-2.853-4.8555-3.8086-2.434-1.3397-4.7998-2.2194-7.0977-2.6387-1.7452-0.31061-4.4141-0.20502-8.0039 0.31641l-0.75586-5.1113 69.346-10.072 0.75586 5.1113-4.7266 0.6875c-4.9034 0.71213-8.3298 2.3383-10.279 4.8789-1.9498 2.541-2.6466 5.6992-2.0879 9.4746 0.69441 4.6968 3.8783 12.607 9.5488 23.73l49.207 96.848 18.621-108.11c2.1631-11.979 2.9173-20.179 2.2637-24.6-0.31357-2.1178-1.2414-4.0046-2.7832-5.6621-1.542-1.6574-3.3302-2.7148-5.3652-3.1719-3.5181-0.80605-7.9484-0.82248-13.289-0.046876l-0.75585-5.1094 53.191-7.7266z" />
 </g>
</svg>
