<?xml version="1.0" encoding="UTF-8" standalone="no"?>

<svg width="271.468" height="52.493" viewBox="0 0 71.826 13.889" xmlns="http://www.w3.org/2000/svg">
    <path id="text1" fill="#fff0" stroke="#fff" style="stroke-width:.25" d="M55.258.82c-.306 0-.58.113-.801.328a.11.11 0 0 0-.002 0 1.102 1.102 0 0 0-.326.801c0 .306.11.58.326.801a.11.11 0 0 0 .002.002c.22.215.495.326.8.326.31 0 .585-.11.802-.326a.11.11 0 0 0 0-.002 1.12 1.12 0 0 0 .328-.8c0-.311-.112-.586-.328-.802a1.104 1.104 0 0 0-.801-.328zM43.36.986a.11.11 0 0 0-.109.11v1.199a.11.11 0 0 0 .11.11H45.4v6.269c0 1.024.19 1.786.592 2.275.402.49 1.051.729 1.916.729.399 0 .77-.022 1.115-.069a8.44 8.44 0 0 0 1.092-.224.11.11 0 0 0 .08-.12l-.166-1.28a.11.11 0 0 0-.14-.092c-.587.172-1.065.257-1.43.257-.407 0-.708-.059-.898-.16h-.002a.75.75 0 0 1-.371-.472c-.07-.229-.108-.534-.108-.913v-7.51a.11.11 0 0 0-.11-.109h-1.46zm-14.367.827a.11.11 0 0 0-.11.109v2.096H27.16a.11.11 0 0 0-.11.109v1.2a.11.11 0 0 0 .11.109h1.725V8.674c0 1.028.25 1.798.771 2.285.526.487 1.357.719 2.479.719a10.899 10.899 0 0 0 1.933-.168.11.11 0 0 0 .092-.121l-.166-1.282a.11.11 0 0 0-.123-.095c-.33.041-.622.076-.879.103a8.144 8.144 0 0 1-.719.035c-.633 0-1.07-.129-1.324-.363-.25-.234-.387-.62-.387-1.182V5.436h3.213a.11.11 0 0 0 .11-.11V4.127a.11.11 0 0 0-.11-.11h-3.212V1.923a.11.11 0 0 0-.11-.11Zm32.014 0a.11.11 0 0 0-.11.109v2.096h-1.722a.11.11 0 0 0-.11.109v1.2a.11.11 0 0 0 .11.109h1.722V8.674c0 1.028.251 1.798.772 2.285.526.487 1.358.719 2.48.719a10.853 10.853 0 0 0 1.932-.168.11.11 0 0 0 .092-.121l-.164-1.282a.11.11 0 0 0-.123-.095 51.2 51.2 0 0 1-.881.103 8.144 8.144 0 0 1-.719.035c-.633 0-1.07-.129-1.324-.363-.25-.234-.385-.62-.385-1.182V5.436h3.211a.11.11 0 0 0 .11-.11V4.127a.11.11 0 0 0-.11-.11h-3.21V1.923a.11.11 0 0 0-.11-.11ZM7.359 3.878c-.586 0-1.073.135-1.449.408-.269.198-.459.46-.57.772l-.082-.942a.11.11 0 0 0-.11-.1H3.824a.11.11 0 0 0-.11.11V14.6a.11.11 0 0 0 .11.109h1.461a.11.11 0 0 0 .11-.11v-4.103c.099.312.278.575.54.774.368.274.847.408 1.424.408.984 0 1.751-.328 2.264-.985.513-.656.76-1.609.76-2.845 0-1.282-.246-2.268-.758-2.948-.512-.68-1.28-1.021-2.266-1.021Zm16.387 0c-1.374 0-2.38.179-3.025.555-.642.376-.971 1.003-.971 1.83 0 .573.182 1.024.545 1.318.36.287.903.515 1.633.701l1.68.428a.11.11 0 0 0 .001 0c.232.057.395.138.489.228a.11.11 0 0 0 .004.004c.09.08.14.205.14.407 0 .278-.128.46-.437.595-.304.13-.83.205-1.56.205-.327 0-.675-.02-1.044-.056-.365-.037-.79-.09-1.271-.162a.11.11 0 0 0-.125.093l-.164 1.323a.11.11 0 0 0 .086.12c.332.076.693.128 1.087.16.4.033.877.05 1.43.05 1.278 0 2.214-.175 2.819-.547a.11.11 0 0 0 .002 0c.604-.377.912-.997.912-1.809 0-.61-.19-1.095-.575-1.426-.375-.326-.951-.575-1.728-.761v.002l-1.348-.332h-.002c-.304-.077-.527-.16-.662-.24l-.002-.002c-.119-.077-.176-.186-.176-.37 0-.137.038-.245.114-.34a.838.838 0 0 1 .367-.24c.342-.132.929-.205 1.74-.205a17.117 17.117 0 0 1 1.807.096.11.11 0 0 0 .12-.096l.153-1.267a.11.11 0 0 0-.092-.121 10.04 10.04 0 0 0-.955-.106h-.002a13.15 13.15 0 0 0-.99-.035zm15.166 0c-1.07 0-1.918.343-2.514 1.03-.595.685-.888 1.645-.888 2.857 0 1.246.345 2.221 1.045 2.902.704.675 1.7 1.01 2.965 1.01.278 0 .597-.012.957-.035a9.734 9.734 0 0 0 1.199-.16.11.11 0 0 0 .088-.124l-.18-1.28a.11.11 0 0 0-.13-.093c-.302.06-.596.106-.888.143-.289.031-.584.049-.882.049-.85 0-1.49-.215-1.938-.633-.22-.208-.281-.61-.373-1.01h4.598a.11.11 0 0 0 .11-.1 9.96 9.96 0 0 0 .042-.945c0-1.156-.276-2.057-.842-2.68-.56-.621-1.36-.931-2.369-.931zm32.016 0c-1.07 0-1.92.343-2.516 1.03-.596.685-.889 1.645-.889 2.857 0 1.246.348 2.221 1.047 2.902.704.675 1.7 1.01 2.963 1.01.279 0 .6-.012.96-.035a9.734 9.734 0 0 0 1.198-.16.11.11 0 0 0 .088-.124l-.18-1.28a.11.11 0 0 0-.13-.093c-.3.06-.598.106-.889.143-.29.031-.582.049-.88.049-.85 0-1.49-.215-1.938-.633-.221-.208-.282-.61-.373-1.01h4.597a.11.11 0 0 0 .11-.1c.028-.293.04-.607.04-.945 0-1.156-.274-2.057-.84-2.68-.559-.621-1.359-.931-2.368-.931Zm-58.56.07a.11.11 0 0 0-.112.098l-.137 1.295a.11.11 0 0 0 .106.12l1.75.05c.663.018 1.151.14 1.464.351a.11.11 0 0 0 0 .002c.315.206.47.516.47.977v.217c-.03-.009-.049-.016-.087-.022h-.002a7.433 7.433 0 0 0-1.18-.084c-1.066 0-1.907.207-2.511.639a.11.11 0 0 0 0 .002c-.6.432-.906 1.066-.906 1.865 0 .693.22 1.251.664 1.64.443.39 1.063.579 1.843.579.493 0 .924-.071 1.293-.215a.11.11 0 0 0 .002 0c.37-.15.664-.373.87-.672.154-.223.203-.498.236-.773l.066 1.488a.11.11 0 0 0 .114.103l2.343-.07a.11.11 0 0 0 .106-.11v-1.17a.11.11 0 0 0-.096-.109l-1.144-.14V7.063c0-.986-.307-1.759-.92-2.282-.612-.53-1.535-.794-2.758-.812zm39.837.069a.11.11 0 0 0-.11.109v1.2a.11.11 0 0 0 .11.109h2.26v4.687H51.79a.11.11 0 0 0-.11.11v1.197a.11.11 0 0 0 .11.11h6.49a.11.11 0 0 0 .11-.11v-1.198a.11.11 0 0 0-.11-.109h-2.136V4.127a.11.11 0 0 0-.11-.11Zm-45.17 1.32c.56 0 .964.201 1.248.615.284.413.434 1.044.434 1.895 0 .804-.149 1.398-.432 1.789-.283.39-.688.582-1.25.582-.55 0-.942-.18-1.22-.543-.274-.364-.42-.91-.42-1.649v-.496c0-.739.146-1.287.42-1.65.278-.364.67-.543 1.22-.543zm31.89.043c.529 0 .923.162 1.214.492.272.304.418.746.435 1.328h-3.367c.057-.495.138-.956.357-1.228.324-.397.767-.592 1.362-.592zm32.016 0c.528 0 .922.162 1.213.492.272.304.419.746.436 1.328h-3.367c.057-.495.138-.956.357-1.228.324-.397.767-.592 1.361-.592zm-56.33 2.963c.307 0 .607.006.899.02a.11.11 0 0 0 .002 0c.121.003.259.03.396.052v.396c0 .236-.068.463-.21.692-.14.224-.351.411-.645.56a.11.11 0 0 0-.002 0c-.284.146-.644.223-1.086.223-.384 0-.666-.084-.861-.238-.19-.154-.284-.361-.284-.658 0-.356.133-.598.422-.774.29-.176.747-.273 1.37-.273Z" transform="matrix(1 0 -.1827 1 -1.046 -.82)"/>
</svg>
